<svg width="12" height="12" viewBox="0 0 12 12" fill="none" xmlns="http://www.w3.org/2000/svg">
<path fill-rule="evenodd" clip-rule="evenodd" d="M7.51517 6.00006L11.5775 10.0624C11.7432 10.2281 11.84 10.3859 11.8898 10.5501C11.9396 10.7143 11.9396 10.8823 11.8898 11.0465C11.84 11.2107 11.7432 11.3685 11.5775 11.5342L11.5341 11.5776C11.3684 11.7433 11.2106 11.8401 11.0464 11.8899C10.8821 11.9397 10.7142 11.9397 10.55 11.8899C10.3857 11.8401 10.228 11.7433 10.0622 11.5776L5.99994 7.51529L1.93764 11.5776C1.77191 11.7433 1.61414 11.8401 1.44992 11.8899C1.28569 11.9397 1.11774 11.9397 0.953513 11.8899C0.789286 11.8401 0.631518 11.7433 0.46579 11.5776L0.422409 11.5342C0.256682 11.3685 0.159863 11.2107 0.110086 11.0465C0.0603098 10.8823 0.0603098 10.7143 0.110086 10.5501C0.159863 10.3859 0.256682 10.2281 0.422409 10.0624L4.48471 6.00006L0.422409 1.93776C0.256682 1.77203 0.159863 1.61426 0.110086 1.45004C0.0603098 1.28581 0.0603098 1.11786 0.110086 0.953635C0.159863 0.789409 0.256682 0.63164 0.422409 0.465912L0.46579 0.422532C0.631518 0.256804 0.789286 0.159985 0.953513 0.110208C1.11774 0.0604319 1.28569 0.0604319 1.44992 0.110208C1.61414 0.159985 1.77191 0.256804 1.93764 0.422532L5.99994 4.48483L10.0622 0.422532C10.228 0.256804 10.3857 0.159985 10.55 0.110208C10.7142 0.0604319 10.8821 0.0604319 11.0464 0.110208C11.2106 0.159985 11.3684 0.256804 11.5341 0.422532L11.5775 0.465912C11.7432 0.63164 11.84 0.789409 11.8898 0.953635C11.9396 1.11786 11.9396 1.28581 11.8898 1.45004C11.84 1.61426 11.7432 1.77203 11.5775 1.93776L7.51517 6.00006Z" fill="#0F1C71"/>
</svg>