<svg width="31" height="34" viewBox="0 0 31 34" fill="none" xmlns="http://www.w3.org/2000/svg">
<path d="M28.6431 0.434814H2.53541C1.9241 0.434814 1.33783 0.676601 0.905571 1.10698C0.47331 1.53736 0.230469 2.12109 0.230469 2.72974C0.230469 3.33839 0.47331 3.92211 0.905571 4.35249C1.33783 4.78287 1.9241 5.02466 2.53541 5.02466H2.83849L4.65792 30.7083C4.85544 31.4646 5.29988 32.134 5.92132 32.6113C6.54277 33.0887 7.30595 33.3467 8.09082 33.345H23.379C24.1583 33.3457 24.9153 33.0863 25.5292 32.6084C26.1432 32.1304 26.5785 31.4614 26.7658 30.7083L28.5362 5.02466H28.6431C29.2544 5.02466 29.8406 4.78287 30.2729 4.35249C30.7052 3.92211 30.948 3.33839 30.948 2.72974C30.948 2.12109 30.7052 1.53736 30.2729 1.10698C29.8406 0.676601 29.2544 0.434814 28.6431 0.434814ZM4.06746 5.02466H8.37428L6.04579 6.13892L4.07923 5.19458L4.06746 5.02466ZM12.2407 18.4768L15.7364 16.7893L19.232 18.4768L15.7364 20.1643L12.2407 18.4768ZM19.234 23.1555L15.7364 24.8401L12.2397 23.1516L15.7364 21.4631L19.234 23.1555ZM12.2397 13.7981L15.7364 12.1096L19.233 13.7981L15.7364 15.4866L12.2397 13.7981ZM12.2397 9.11939L15.7364 7.43091L19.234 9.11743L15.7364 10.8079L12.2397 9.11939ZM14.3877 11.4612L10.8911 13.1467L7.39443 11.4612L10.8911 9.77271L14.3877 11.4612ZM14.3877 16.1409L10.8921 17.8284L7.39541 16.1399L10.8911 14.4495L14.3877 16.1409ZM14.3877 20.8186L10.8911 22.5042L7.39541 20.8157L10.8921 19.1272L14.3877 20.8186ZM14.3877 25.4973L10.8921 27.1838L7.39443 25.4944L10.8911 23.8069L14.3877 25.4973ZM15.7364 26.1487L19.233 27.8372L15.7364 29.5217L12.2407 27.8342L15.7364 26.1487ZM17.0899 25.4944L20.5866 23.8059L24.0822 25.4944L20.5816 27.1838L17.0899 25.4944ZM20.5866 22.5042L17.0899 20.8157L20.5866 19.1282L24.0832 20.8167L20.5866 22.5042ZM17.0899 16.1379L20.5816 14.4495L24.0773 16.137L20.5807 17.8254L17.0899 16.1379ZM17.0899 11.4612L20.5866 9.77271L24.0783 11.4612L20.5816 13.1467L17.0899 11.4612ZM17.0899 6.7815L20.5866 5.09302L24.0842 6.7815L20.5816 8.46802L17.0899 6.7815ZM15.7364 6.14868L13.4089 5.02466H18.0648L15.7364 6.14868ZM14.3877 6.77954L10.8911 8.46802L7.39443 6.77954L10.8911 5.09107L14.3877 6.77954ZM4.16947 6.52564L4.69715 6.77954L4.20674 7.01782L4.16947 6.52564ZM4.28815 8.28345L6.04579 7.43482L9.54244 9.11743L6.04579 10.8079L4.40683 10.0159L4.28815 8.28345ZM4.49707 11.3635L4.69323 11.4612L4.50589 11.551L4.49707 11.3635ZM4.59515 12.8118L6.04579 12.1116L9.54244 13.8L6.04579 15.4866L4.73148 14.8518L4.59515 12.8118ZM4.90117 17.343L6.04677 16.7903L9.54342 18.4778L6.04579 20.1653L5.05908 19.6887L4.90117 17.343ZM5.20719 21.8743L6.04579 21.469L9.54244 23.1565L6.04579 24.8401L5.38569 24.5217L5.20719 21.8743ZM5.51615 26.4026L6.04873 26.1448L9.54636 27.8333L6.04579 29.5276L5.71231 29.3616L5.51615 26.4026ZM8.0967 32.1721C7.65648 32.1721 7.22519 32.0485 6.85234 31.8155C6.4795 31.5825 6.18023 31.2495 5.9889 30.8547L6.04873 30.8264L8.83625 32.1721H8.0967ZM7.39835 30.1731L10.895 28.4846L14.3907 30.1721L10.8911 31.8616L7.39835 30.1731ZM12.9528 32.1721L15.7393 30.8264L18.5268 32.1721H12.9528ZM17.0899 30.1731L20.5866 28.4856L24.0832 30.1741L20.5816 31.8616L17.0899 30.1731ZM23.3839 32.1731H22.6453L25.4269 30.8264L25.4877 30.8567C25.2964 31.2515 24.997 31.5846 24.6239 31.8175C24.2508 32.0504 23.8193 32.1736 23.379 32.1731H23.3839ZM25.7604 29.3616L25.4269 29.5276L21.9303 27.8391L25.4269 26.1458L25.9605 26.4036L25.7604 29.3616ZM26.087 24.5247L25.4269 24.8401L21.9313 23.1526L25.4269 21.468L26.2665 21.8733L26.087 24.5247ZM26.4136 19.6887L25.4269 20.1653L21.9303 18.4768L25.4269 16.7883L26.5725 17.342L26.4136 19.6887ZM26.7403 14.8518L25.4269 15.4866L21.9313 13.7991L25.4269 12.1106L26.8776 12.8108L26.7403 14.8518ZM26.9639 11.5491L26.7766 11.4583L26.9727 11.3606L26.9639 11.5491ZM27.0669 10.0159L25.4269 10.8079L21.9313 9.11743L25.4269 7.43091L27.1846 8.27954L27.0669 10.0159ZM27.2699 7.01782L26.7795 6.77954L27.3062 6.52564L27.2699 7.01782ZM27.3945 5.18872L25.4269 6.1438L23.0994 5.02466H27.4062L27.3945 5.18872ZM29.4316 3.51587C29.225 3.72691 28.943 3.84802 28.647 3.85278H2.53541C2.23626 3.85278 1.94936 3.73446 1.73783 3.52385C1.5263 3.31324 1.40746 3.02759 1.40746 2.72974C1.40746 2.43189 1.5263 2.14623 1.73783 1.93562C1.94936 1.72501 2.23626 1.60669 2.53541 1.60669H20.0775C20.2336 1.60669 20.3833 1.54496 20.4936 1.43507C20.604 1.32519 20.666 1.17615 20.666 1.02075C20.666 0.865352 20.604 0.716316 20.4936 0.606432C20.3833 0.496547 20.2336 0.434814 20.0775 0.434814H23.4123C23.2562 0.434814 23.1065 0.496547 22.9962 0.606432C22.8858 0.716316 22.8238 0.865352 22.8238 1.02075C22.8238 1.17615 22.8858 1.32519 22.9962 1.43507C23.1065 1.54496 23.2562 1.60669 23.4123 1.60669H28.6401C28.9361 1.60772 29.2196 1.72544 29.4286 1.93408C29.6376 2.14272 29.7551 2.4253 29.7553 2.71997C29.7562 3.01778 29.6388 3.30385 29.4287 3.51587H29.4316Z" fill="#0F1C71"/>
</svg>